<?xml version="1.0" encoding="UTF-8"?>
<svg version="1.1" viewBox="0 0 2000 2000" width="500" height="500" xmlns="http://www.w3.org/2000/svg">
<path transform="translate(1105,867)" d="m0 0h74l3 6 6 22 8 27 7 25 6 20 7 24 6 20 6-16 5-20 4-13 7-25 12-44 6-21 2-5h75l2 5 6 32 5 32 4 25 7 40 5 30 7 43 8 48 1 7-1 1h-57l-2-3-3-24-4-23-4-32-4-23-4-31-4-25-3-27h-2l-4 20-8 30-7 27-11 41-8 30-7 27-4 12-2 1h-46l-7-21-6-23-6-22-5-18-6-21-5-19-16-58-2-5-4 32-4 27-4 32-3 18-5 39-4 27-1 9-2 3h-55l-1-3 7-46 5-32 6-36 5-32 8-51 8-50z" fill="#020202"/>
<path transform="translate(874,855)" d="m0 0h25l23 2 39 8 26 9 13 6 9 5 1 3-9 16-11 18-5 9-5-2-24-10-26-7-19-2h-41l-16 3-17 7-12 9-9 9-7 11-6 13-3 13-2 13v24l3 19 3 10 8 16 7 9 11 9 10 6 15 6 10 2 10 1h23l18-2 20-8 11-7 8-8 7-11 3-12 1-13-92-1v-55l153 1v57l-2 14-7 25-8 17-9 12-9 10-12 10-18 10-20 7-32 6-9 1h-33l-23-4-18-4-21-9-14-8-10-8-10-9-9-10-10-15-7-15-7-21-3-23v-33l3-24 5-16 6-15 8-14 9-12 15-15 13-9 16-9 15-6 29-7z" fill="#020202"/>
<path transform="translate(420,855)" d="m0 0h46l25 3 33 7 23 8 14 7-1 5-9 16-9 15-7 11-7-1-18-7-25-7-17-2-15-1h-16l-22 2-11 3-16 8-7 8-2 8v8l3 7 5 4 12 6 38 6 48 4 17 3 22 6 17 9 13 12 6 8 6 11 5 19v22l-5 20-8 15-9 11-10 9-15 9-18 8-27 7-15 2-19 1h-15l-22-1-15-2-33-7-30-10-14-6 2-5 4-7 11-23 7-14 9 3 16 5 19 5 22 5 31 2 27-1 14-3 15-6 8-6 6-10 1-4v-8l-4-9-6-6-22-7-15-2-37-3-42-6-10-3-15-6-14-9-10-10-7-11-7-18-2-12v-10l3-16 6-16 8-12 8-9 10-8 15-9 17-7 22-6z" fill="#020202"/>
<path transform="translate(1497,867)" d="m0 0h81l3 5 14 36 22 55 22 56 22 55 15 38 5 12 2 5-1 1h-60l-3-5-6-14-10-27-2-5-4-1h-104l-21 1-5 11-6 15-9 22-3 3h-54l-1-4 9-23 26-65 12-31 20-50 14-36 6-15 11-28zm39 49-5 10-15 38-11 28-9 23-4 10v3h89l-1-5-6-14-11-29-20-51-5-12z" fill="#020202"/>
<path transform="translate(624,867)" d="m0 0h58l1 1v260l-4 2h-54l-1-1-1-260z" fill="#010101"/>
</svg>
