<svg version="1.1" id="Layer_1" xmlns="http://www.w3.org/2000/svg" xmlns:xlink="http://www.w3.org/1999/xlink" x="0px" y="0px"
	 width="100%" viewBox="0 0 2048 2048" enable-background="new 0 0 2048 2048" xml:space="preserve">
<path fill="#FFFFFF" opacity="1.000000" stroke="none" 
	d="
M1865.000000,2049.000000 
	C1243.333374,2049.000000 622.166687,2049.000000 1.000000,2049.000000 
	C1.000000,1366.333374 1.000000,683.666687 1.000000,1.000000 
	C683.666687,1.000000 1366.333374,1.000000 2049.000000,1.000000 
	C2049.000000,683.666687 2049.000000,1366.333374 2049.000000,2049.000000 
	C1987.833374,2049.000000 1926.666626,2049.000000 1865.000000,2049.000000 
M1352.714722,1120.976074 
	C1354.504395,1133.459473 1356.293945,1145.942871 1358.087402,1158.452881 
	C1378.288452,1158.452881 1398.054810,1158.452881 1418.390015,1158.452881 
	C1403.388184,1068.430908 1388.444458,978.756714 1373.495361,889.050781 
	C1347.228516,889.050781 1321.432373,889.050781 1295.368652,889.050781 
	C1281.419434,938.820374 1267.495972,988.498169 1253.572510,1038.175903 
	C1253.208862,1038.108032 1252.845215,1038.040161 1252.481567,1037.972168 
	C1237.911621,988.299377 1223.341553,938.626526 1208.840576,889.188782 
	C1182.918335,889.188782 1157.505859,889.188782 1132.010010,889.188782 
	C1117.822144,979.025879 1103.680786,1068.569214 1089.484985,1158.457520 
	C1109.255127,1158.457520 1128.491943,1158.457520 1148.043457,1158.457520 
	C1156.911255,1094.232300 1165.752686,1030.199097 1174.593994,966.165833 
	C1185.093872,1000.534302 1194.538086,1034.809570 1203.954346,1069.092285 
	C1211.700439,1097.295410 1219.381226,1125.516479 1227.207642,1153.697144 
	C1227.778320,1155.752563 1227.297607,1158.823486 1231.274658,1158.782227 
	C1246.741577,1158.621338 1262.211182,1158.716553 1277.914917,1158.716553 
	C1294.981934,1094.252197 1311.973511,1030.072510 1328.965210,965.892639 
	C1329.327148,965.938171 1329.688965,965.983704 1330.050903,966.029175 
	C1337.540649,1017.392395 1345.030396,1068.755615 1352.714722,1120.976074 
M779.834351,935.303528 
	C775.224060,943.745422 769.797241,951.850708 766.153076,960.690857 
	C754.122375,989.875427 751.653198,1020.394836 756.014038,1051.416260 
	C763.046387,1101.441772 788.731506,1138.317871 835.857422,1157.800659 
	C881.214722,1176.552246 927.917786,1175.665894 974.250854,1161.186523 
	C1007.841064,1150.689209 1031.253174,1128.444336 1043.593262,1095.192993 
	C1051.653687,1073.473267 1053.568848,1050.810913 1053.081421,1027.859863 
	C1052.874390,1018.106506 1052.439819,1008.358032 1052.110596,998.665833 
	C999.711304,998.665833 947.979797,998.665833 896.331177,998.665833 
	C896.331177,1017.286560 896.331177,1035.549072 896.331177,1054.283813 
	C928.029297,1054.283813 959.437012,1054.283813 991.052124,1054.283813 
	C991.052124,1057.072144 991.133606,1059.390015 991.026062,1061.699097 
	C990.941223,1063.520508 990.724609,1065.349854 990.394226,1067.143921 
	C986.355957,1089.071899 972.403076,1102.652588 952.643555,1110.790405 
	C931.920410,1119.324829 910.205383,1120.496948 888.332581,1116.886719 
	C855.784363,1111.514160 832.641418,1094.193848 822.293091,1062.059937 
	C816.593201,1044.360474 816.058594,1026.100220 818.058899,1007.686890 
	C822.312500,968.532532 846.405579,941.517578 884.815125,933.745361 
	C908.703491,928.911560 932.576355,931.160950 956.280701,935.581360 
	C974.692810,939.014771 991.989868,945.798645 1009.062012,954.341553 
	C1018.201721,939.078003 1027.218872,924.019287 1036.419678,908.653687 
	C1023.098389,900.995667 1009.390808,895.167480 995.080200,890.760193 
	C952.100098,877.523438 908.499695,872.282104 864.062439,882.067566 
	C829.955688,889.578186 801.066772,905.840576 779.834351,935.303528 
M479.168579,932.089294 
	C503.147278,934.822510 526.012634,941.570618 548.272217,951.656067 
	C557.891113,935.331177 567.359131,919.262451 576.943115,902.996765 
	C575.369690,902.161987 574.250488,901.463440 573.052002,900.949890 
	C566.791016,898.267761 560.619019,895.328369 554.217712,893.031433 
	C519.495728,880.572388 483.479858,875.796570 446.790070,876.328125 
	C424.837494,876.646179 403.459778,880.964905 383.251678,889.921387 
	C353.510864,903.102844 331.913391,923.354309 327.529327,957.298889 
	C323.534027,988.233276 334.402039,1015.731445 362.615997,1032.619141 
	C377.062775,1041.266235 393.122955,1044.924561 409.504608,1046.956177 
	C431.471130,1049.680298 453.584747,1051.238647 475.530945,1054.098022 
	C486.161865,1055.483032 496.890686,1057.746948 506.967407,1061.324829 
	C518.455139,1065.403687 523.359192,1074.896851 521.885193,1086.133179 
	C520.819519,1094.257446 516.182251,1100.192017 509.684784,1104.778198 
	C500.646515,1111.158081 490.328796,1114.293701 479.564209,1115.994507 
	C450.121674,1120.646118 421.078217,1117.637329 392.466339,1110.321777 
	C378.031799,1106.631226 363.944489,1101.582520 349.253418,1097.008789 
	C341.512970,1113.173218 333.526825,1129.850708 325.440491,1146.737549 
	C327.772064,1147.783691 329.561523,1148.627197 331.382019,1149.397339 
	C368.472290,1165.090942 407.186707,1173.054932 447.428345,1173.409790 
	C474.770691,1173.650757 501.669861,1170.588013 527.114685,1159.860474 
	C559.921082,1146.028687 582.176270,1123.443604 585.485596,1086.239014 
	C588.160889,1056.162720 576.873291,1028.023193 547.244263,1011.927917 
	C531.576721,1003.416992 514.483398,1000.019104 497.083710,998.080933 
	C476.072174,995.740479 454.922333,994.552551 433.968201,991.822998 
	C422.862885,990.376404 411.595276,987.865051 401.208954,983.779907 
	C387.454346,978.369995 383.986572,963.675171 392.435669,951.478943 
	C399.111267,941.842529 409.467926,937.905640 420.205902,935.090881 
	C439.312195,930.082581 458.745483,930.048889 479.168579,932.089294 
M1429.118774,1153.770386 
	C1428.689819,1155.292358 1428.260986,1156.814331 1427.730835,1158.695923 
	C1446.766235,1158.695923 1465.251221,1158.767334 1483.732910,1158.548340 
	C1485.084351,1158.532349 1487.055664,1156.678345 1487.649780,1155.231689 
	C1493.960815,1139.862183 1500.132446,1124.433594 1506.133057,1108.940063 
	C1507.315796,1105.886230 1508.697266,1104.656250 1512.184692,1104.668579 
	C1553.502808,1104.815063 1594.822021,1104.796387 1636.140503,1104.698608 
	C1639.113892,1104.691528 1640.495728,1105.597046 1641.567261,1108.397217 
	C1647.562378,1124.064209 1653.833374,1139.625488 1659.867065,1155.278076 
	C1660.832642,1157.782959 1661.979126,1158.890869 1664.831665,1158.790405 
	C1671.487671,1158.556030 1678.157715,1158.720581 1684.822021,1158.721069 
	C1697.763306,1158.721924 1710.704468,1158.721313 1724.152100,1158.721313 
	C1723.503540,1156.843384 1723.086182,1155.462158 1722.555664,1154.126099 
	C1718.141602,1143.010132 1713.690918,1131.908691 1709.280518,1120.791138 
	C1679.261841,1045.119507 1649.222290,969.455994 1619.323975,893.736755 
	C1617.905029,890.143127 1616.401245,888.748779 1612.303589,888.791016 
	C1587.981201,889.041504 1563.654053,889.016479 1539.330811,888.815552 
	C1535.216919,888.781616 1533.384277,890.023621 1531.852051,893.912964 
	C1497.811890,980.324097 1463.606689,1066.670288 1429.118774,1153.770386 
M699.779846,910.500183 
	C699.779846,903.391785 699.779846,896.283447 699.779846,889.145264 
	C679.592041,889.145264 660.004822,889.145264 640.247742,889.145264 
	C640.247742,979.000244 640.247742,1068.582520 640.247742,1158.334961 
	C660.166138,1158.334961 679.872253,1158.334961 699.779846,1158.334961 
	C699.779846,1075.801636 699.779846,993.650879 699.779846,910.500183 
z"/>
<path fill="#020202" opacity="1.000000" stroke="none" 
	d="
M1352.617432,1120.547363 
	C1345.030396,1068.755615 1337.540649,1017.392395 1330.050903,966.029175 
	C1329.688965,965.983704 1329.327148,965.938171 1328.965210,965.892639 
	C1311.973511,1030.072510 1294.981934,1094.252197 1277.914917,1158.716553 
	C1262.211182,1158.716553 1246.741577,1158.621338 1231.274658,1158.782227 
	C1227.297607,1158.823486 1227.778320,1155.752563 1227.207642,1153.697144 
	C1219.381226,1125.516479 1211.700439,1097.295410 1203.954346,1069.092285 
	C1194.538086,1034.809570 1185.093872,1000.534302 1174.593994,966.165833 
	C1165.752686,1030.199097 1156.911255,1094.232300 1148.043457,1158.457520 
	C1128.491943,1158.457520 1109.255127,1158.457520 1089.484985,1158.457520 
	C1103.680786,1068.569214 1117.822144,979.025879 1132.010010,889.188782 
	C1157.505859,889.188782 1182.918335,889.188782 1208.840576,889.188782 
	C1223.341553,938.626526 1237.911621,988.299377 1252.481567,1037.972168 
	C1252.845215,1038.040161 1253.208862,1038.108032 1253.572510,1038.175903 
	C1267.495972,988.498169 1281.419434,938.820374 1295.368652,889.050781 
	C1321.432373,889.050781 1347.228516,889.050781 1373.495361,889.050781 
	C1388.444458,978.756714 1403.388184,1068.430908 1418.390015,1158.452881 
	C1398.054810,1158.452881 1378.288452,1158.452881 1358.087402,1158.452881 
	C1356.293945,1145.942871 1354.504395,1133.459473 1352.617432,1120.547363 
z"/>
<path fill="#020202" opacity="1.000000" stroke="none" 
	d="
M780.037354,935.008972 
	C801.066772,905.840576 829.955688,889.578186 864.062439,882.067566 
	C908.499695,872.282104 952.100098,877.523438 995.080200,890.760193 
	C1009.390808,895.167480 1023.098389,900.995667 1036.419678,908.653687 
	C1027.218872,924.019287 1018.201721,939.078003 1009.062012,954.341553 
	C991.989868,945.798645 974.692810,939.014771 956.280701,935.581360 
	C932.576355,931.160950 908.703491,928.911560 884.815125,933.745361 
	C846.405579,941.517578 822.312500,968.532532 818.058899,1007.686890 
	C816.058594,1026.100220 816.593201,1044.360474 822.293091,1062.059937 
	C832.641418,1094.193848 855.784363,1111.514160 888.332581,1116.886719 
	C910.205383,1120.496948 931.920410,1119.324829 952.643555,1110.790405 
	C972.403076,1102.652588 986.355957,1089.071899 990.394226,1067.143921 
	C990.724609,1065.349854 990.941223,1063.520508 991.026062,1061.699097 
	C991.133606,1059.390015 991.052124,1057.072144 991.052124,1054.283813 
	C959.437012,1054.283813 928.029297,1054.283813 896.331177,1054.283813 
	C896.331177,1035.549072 896.331177,1017.286560 896.331177,998.665833 
	C947.979797,998.665833 999.711304,998.665833 1052.110596,998.665833 
	C1052.439819,1008.358032 1052.874390,1018.106506 1053.081421,1027.859863 
	C1053.568848,1050.810913 1051.653687,1073.473267 1043.593262,1095.192993 
	C1031.253174,1128.444336 1007.841064,1150.689209 974.250854,1161.186523 
	C927.917786,1175.665894 881.214722,1176.552246 835.857422,1157.800659 
	C788.731506,1138.317871 763.046387,1101.441772 756.014038,1051.416260 
	C751.653198,1020.394836 754.122375,989.875427 766.153076,960.690857 
	C769.797241,951.850708 775.224060,943.745422 780.037354,935.008972 
z"/>
<path fill="#020202" opacity="1.000000" stroke="none" 
	d="
M478.711548,932.051758 
	C458.745483,930.048889 439.312195,930.082581 420.205902,935.090881 
	C409.467926,937.905640 399.111267,941.842529 392.435669,951.478943 
	C383.986572,963.675171 387.454346,978.369995 401.208954,983.779907 
	C411.595276,987.865051 422.862885,990.376404 433.968201,991.822998 
	C454.922333,994.552551 476.072174,995.740479 497.083710,998.080933 
	C514.483398,1000.019104 531.576721,1003.416992 547.244263,1011.927917 
	C576.873291,1028.023193 588.160889,1056.162720 585.485596,1086.239014 
	C582.176270,1123.443604 559.921082,1146.028687 527.114685,1159.860474 
	C501.669861,1170.588013 474.770691,1173.650757 447.428345,1173.409790 
	C407.186707,1173.054932 368.472290,1165.090942 331.382019,1149.397339 
	C329.561523,1148.627197 327.772064,1147.783691 325.440491,1146.737549 
	C333.526825,1129.850708 341.512970,1113.173218 349.253418,1097.008789 
	C363.944489,1101.582520 378.031799,1106.631226 392.466339,1110.321777 
	C421.078217,1117.637329 450.121674,1120.646118 479.564209,1115.994507 
	C490.328796,1114.293701 500.646515,1111.158081 509.684784,1104.778198 
	C516.182251,1100.192017 520.819519,1094.257446 521.885193,1086.133179 
	C523.359192,1074.896851 518.455139,1065.403687 506.967407,1061.324829 
	C496.890686,1057.746948 486.161865,1055.483032 475.530945,1054.098022 
	C453.584747,1051.238647 431.471130,1049.680298 409.504608,1046.956177 
	C393.122955,1044.924561 377.062775,1041.266235 362.615997,1032.619141 
	C334.402039,1015.731445 323.534027,988.233276 327.529327,957.298889 
	C331.913391,923.354309 353.510864,903.102844 383.251678,889.921387 
	C403.459778,880.964905 424.837494,876.646179 446.790070,876.328125 
	C483.479858,875.796570 519.495728,880.572388 554.217712,893.031433 
	C560.619019,895.328369 566.791016,898.267761 573.052002,900.949890 
	C574.250488,901.463440 575.369690,902.161987 576.943115,902.996765 
	C567.359131,919.262451 557.891113,935.331177 548.272217,951.656067 
	C526.012634,941.570618 503.147278,934.822510 478.711548,932.051758 
z"/>
<path fill="#020202" opacity="1.000000" stroke="none" 
	d="
M1429.275757,1153.399658 
	C1463.606689,1066.670288 1497.811890,980.324097 1531.852051,893.912964 
	C1533.384277,890.023621 1535.216919,888.781616 1539.330811,888.815552 
	C1563.654053,889.016479 1587.981201,889.041504 1612.303589,888.791016 
	C1616.401245,888.748779 1617.905029,890.143127 1619.323975,893.736755 
	C1649.222290,969.455994 1679.261841,1045.119507 1709.280518,1120.791138 
	C1713.690918,1131.908691 1718.141602,1143.010132 1722.555664,1154.126099 
	C1723.086182,1155.462158 1723.503540,1156.843384 1724.152100,1158.721313 
	C1710.704468,1158.721313 1697.763306,1158.721924 1684.822021,1158.721069 
	C1678.157715,1158.720581 1671.487671,1158.556030 1664.831665,1158.790405 
	C1661.979126,1158.890869 1660.832642,1157.782959 1659.867065,1155.278076 
	C1653.833374,1139.625488 1647.562378,1124.064209 1641.567261,1108.397217 
	C1640.495728,1105.597046 1639.113892,1104.691528 1636.140503,1104.698608 
	C1594.822021,1104.796387 1553.502808,1104.815063 1512.184692,1104.668579 
	C1508.697266,1104.656250 1507.315796,1105.886230 1506.133057,1108.940063 
	C1500.132446,1124.433594 1493.960815,1139.862183 1487.649780,1155.231689 
	C1487.055664,1156.678345 1485.084351,1158.532349 1483.732910,1158.548340 
	C1465.251221,1158.767334 1446.766235,1158.695923 1427.730835,1158.695923 
	C1428.260986,1156.814331 1428.689819,1155.292358 1429.275757,1153.399658 
M1616.699341,1044.803467 
	C1602.785400,1009.172729 1588.871460,973.541870 1574.500244,936.740112 
	C1558.752563,976.491943 1543.507812,1014.974731 1528.166138,1053.702026 
	C1559.248779,1053.702026 1589.476685,1053.702026 1620.071411,1053.702026 
	C1618.944946,1050.748901 1617.950317,1048.141479 1616.699341,1044.803467 
z"/>
<path fill="#020202" opacity="1.000000" stroke="none" 
	d="
M699.779846,911.000122 
	C699.779846,993.650879 699.779846,1075.801636 699.779846,1158.334961 
	C679.872253,1158.334961 660.166138,1158.334961 640.247742,1158.334961 
	C640.247742,1068.582520 640.247742,979.000244 640.247742,889.145264 
	C660.004822,889.145264 679.592041,889.145264 699.779846,889.145264 
	C699.779846,896.283447 699.779846,903.391785 699.779846,911.000122 
z"/>
<path fill="#FCFCFC" opacity="1.000000" stroke="none" 
	d="
M1616.827515,1045.168701 
	C1617.950317,1048.141479 1618.944946,1050.748901 1620.071411,1053.702026 
	C1589.476685,1053.702026 1559.248779,1053.702026 1528.166138,1053.702026 
	C1543.507812,1014.974731 1558.752563,976.491943 1574.500244,936.740112 
	C1588.871460,973.541870 1602.785400,1009.172729 1616.827515,1045.168701 
z"/>
</svg>